{"title":"Moor 2015 DVDscr Pakistani Movie xviD-TvMovize.mp4","uid":13912732,"size":404561099,"categoryP":"video","categoryS":"movies","magnet":"?xt=urn:btih:83a974ec60344d6d8aab035147f1acaaa46828c5&amp;dn=Moor+2015+DVDscr+Pakistani+Movie+xviD-TvMovize.mp4&amp;tr=udp%3A%2F%2Ftracker.leechers-paradise.org%3A6969&amp;tr=udp%3A%2F%2Fzer0day.ch%3A1337&amp;tr=udp%3A%2F%2Fopen.demonii.com%3A1337&amp;tr=udp%3A%2F%2Ftracker.coppersurfer.tk%3A6969&amp;tr=udp%3A%2F%2Fexodus.desync.com%3A6969","seeders":12,"leechers":3,"uploader":"TvMovize","files":1,"time":1458315618,"description":"Moor 2015 DVDscr Pakistani Movie xviD-TvMovize.mp4\r\n\r\n++ ScreenShots ++\r\n \nhttp://www.image2be.com/movie/Moor/1.html  \nhttp://www.image2be.com/movie/Moor/2.html  \nhttp://www.image2be.com/movie/Moor/3.html  \nhttp://www.image2be.com/movie/Moor/4.html  \nhttp://www.image2be.com/movie/Moor/5.html \r\n\r\n++ Info ++\r\n\r\nFormat : MPEG-4 \r\nFormat profile : Base Media \r\nCodec ID : isom (isom/iso2/avc1/mp41) \r\nFile size : 386 MiB \r\nDuration : 2h 11mn \r\nOverall bit rate mode : Variable \r\nOverall bit rate : 412 Kbps \r\nWriting application : Lavf57.3.100 \r\n\r\nVideo \r\nID : 1 \r\nFormat : AVC \r\nFormat/Info : Advanced Video Codec \r\nFormat profile :    \r\nFormat settings, CABAC : No \r\nFormat settings, ReFrames : 1 frame \r\nCodec ID : avc1 \r\nCodec ID/Info : Advanced Video Coding \r\nDuration : 2h 11mn \r\nBit rate : 288 Kbps \r\nWidth : 640 pixels \r\nHeight : 272 pixels \r\nDisplay aspect ratio : 2.35:1 \r\nFrame rate mode : Constant \r\nFrame rate : 25.000 fps \r\nColor space : YUV \r\nChroma subsampling : 4:2:0 \r\nBit depth : 8 bits \r\nScan type : Progressive \r\nBits/(Pixel*Frame) : 0.066 \r\nStream size : 270 MiB (70%) \r\n\r\nAudio \r\nID : 2 \r\nFormat : AAC \r\nFormat/Info : Advanced Audio Codec \r\nFormat profile : LC \r\nCodec ID : 40 \r\nDuration : 2h 11mn \r\nBit rate mode : Variable \r\nBit rate : 119 Kbps \r\nMaximum bit rate : 128 Kbps \r\nChannel(s) : 2 channels \r\nChannel positions : Front: L R \r\nSampling rate : 44.1 KHz \r\nFrame rate : 43.066 fps (1024 spf) \r\nCompression mode : Lossy \r\nStream size : 111 MiB (29%) \r\nDefault : Yes \r\nAlternate group : 1","torrent":{"xt":"urn:btih:83a974ec60344d6d8aab035147f1acaaa46828c5","amp;dn":"Moor+2015+DVDscr+Pakistani+Movie+xviD-TvMovize.mp4","amp;tr":["udp%3A%2F%2Ftracker.leechers-paradise.org%3A6969","udp%3A%2F%2Fzer0day.ch%3A1337","udp%3A%2F%2Fopen.demonii.com%3A1337","udp%3A%2F%2Ftracker.coppersurfer.tk%3A6969","udp%3A%2F%2Fexodus.desync.com%3A6969"],"infoHash":"83a974ec60344d6d8aab035147f1acaaa46828c5","infoHashBuffer":{"type":"Buffer","data":[131,169,116,236,96,52,77,109,138,171,3,81,71,241,172,170,164,104,40,197]},"announce":[],"urlList":[]}}